<svg preserveAspectRatio="none" width="100%" height="100%" overflow="visible" style="display: block;" viewBox="0 0 16 16" fill="none" xmlns="http://www.w3.org/2000/svg">
<g id="moon">
<path id="Vector" d="M12.8486 11.5326C13.531 10.5958 13.9274 9.48135 13.9899 8.32405C14.0046 8.05408 13.6839 7.91343 13.4546 8.05675C12.6875 8.5361 11.7806 8.74136 10.8819 8.63902C9.98315 8.53668 9.14563 8.13279 8.50602 7.49326C7.86641 6.85373 7.46247 6.01633 7.36011 5.11771C7.25776 4.21909 7.46305 3.31231 7.94246 2.54536C8.0858 2.31672 7.94446 1.99542 7.67446 2.01008C6.51701 2.07268 5.40247 2.46916 4.46558 3.15158C3.52868 3.83401 2.80953 4.77317 2.39507 5.85554C1.98061 6.9379 1.88857 8.11713 2.13009 9.25069C2.37161 10.3842 2.93634 11.4236 3.75602 12.2431C4.5757 13.0625 5.61523 13.6271 6.74895 13.8685C7.88268 14.1098 9.06205 14.0177 10.1445 13.6032C11.227 13.1886 12.1662 12.4695 12.8486 11.5326Z" stroke="var(--stroke-0, #6366F1)" stroke-width="2" stroke-linecap="round"/>
</g>
</svg>
